<svg width="128" height="27" viewBox="0 0 128 27" fill="none" xmlns="http://www.w3.org/2000/svg">
<path d="M7.50195 15.4082L10.2363 6.20703H14.4746L8.52734 23.2969L8.19922 24.0762C7.3151 26.0085 5.85677 26.9746 3.82422 26.9746C3.25 26.9746 2.66667 26.888 2.07422 26.7148V23.7207L2.67578 23.7344C3.42318 23.7344 3.97917 23.6204 4.34375 23.3926C4.71745 23.1647 5.00911 22.7865 5.21875 22.2578L5.68359 21.041L0.501953 6.20703H4.75391L7.50195 15.4082ZM29.3633 13.7402C29.3633 16.11 28.8574 17.9603 27.8457 19.291C26.834 20.6126 25.4212 21.2734 23.6074 21.2734C22.0033 21.2734 20.7227 20.6582 19.7656 19.4277L19.5879 21H16.0332V0H19.9844V7.5332C20.8958 6.4668 22.0944 5.93359 23.5801 5.93359C25.3848 5.93359 26.7975 6.59896 27.8184 7.92969C28.8483 9.2513 29.3633 11.1152 29.3633 13.5215V13.7402ZM25.4121 13.4531C25.4121 11.9583 25.1751 10.8691 24.7012 10.1855C24.2272 9.49284 23.5208 9.14648 22.582 9.14648C21.3242 9.14648 20.4583 9.66146 19.9844 10.6914V16.5293C20.4674 17.5684 21.3424 18.0879 22.6094 18.0879C23.8854 18.0879 24.724 17.459 25.125 16.2012C25.3164 15.5996 25.4121 14.6836 25.4121 13.4531ZM35.5156 6.20703L35.6387 7.86133C36.6868 6.57617 38.1042 5.93359 39.8906 5.93359C41.7956 5.93359 43.1035 6.68555 43.8145 8.18945C44.8535 6.68555 46.3346 5.93359 48.2578 5.93359C49.862 5.93359 51.056 6.40299 51.8398 7.3418C52.6237 8.27148 53.0156 9.67513 53.0156 11.5527V21H49.0508V11.5664C49.0508 10.7279 48.8867 10.1172 48.5586 9.73438C48.2305 9.34245 47.6517 9.14648 46.8223 9.14648C45.6374 9.14648 44.8171 9.71159 44.3613 10.8418L44.375 21H40.4238V11.5801C40.4238 10.7233 40.2552 10.1035 39.918 9.7207C39.5807 9.33789 39.0065 9.14648 38.1953 9.14648C37.0742 9.14648 36.263 9.61133 35.7617 10.541V21H31.8105V6.20703H35.5156ZM67.8496 6.20703L67.9727 7.91602C69.0299 6.5944 70.4473 5.93359 72.2246 5.93359C73.7923 5.93359 74.959 6.39388 75.7246 7.31445C76.4902 8.23503 76.8822 9.61133 76.9004 11.4434V21H72.9492V11.5391C72.9492 10.7005 72.7669 10.0944 72.4023 9.7207C72.0378 9.33789 71.4316 9.14648 70.584 9.14648C69.472 9.14648 68.638 9.62044 68.082 10.5684V21H64.1309V6.20703H67.8496ZM86.7168 21.2734C84.5475 21.2734 82.7793 20.6081 81.4121 19.2773C80.054 17.9466 79.375 16.1738 79.375 13.959V13.5762C79.375 12.0905 79.6621 10.7643 80.2363 9.59766C80.8105 8.42188 81.6217 7.51953 82.6699 6.89062C83.7272 6.2526 84.9303 5.93359 86.2793 5.93359C88.3027 5.93359 89.8932 6.57161 91.0508 7.84766C92.2174 9.1237 92.8008 10.9329 92.8008 13.2754V14.8887H83.3809C83.5085 15.8548 83.8913 16.6296 84.5293 17.2129C85.1764 17.7962 85.9922 18.0879 86.9766 18.0879C88.4987 18.0879 89.6882 17.5365 90.5449 16.4336L92.4863 18.6074C91.8939 19.446 91.0918 20.1022 90.0801 20.5762C89.0684 21.041 87.9473 21.2734 86.7168 21.2734ZM86.2656 9.13281C85.4818 9.13281 84.8438 9.39714 84.3516 9.92578C83.8685 10.4544 83.5586 11.2109 83.4219 12.1953H88.918V11.8809C88.8997 11.0059 88.6628 10.3314 88.207 9.85742C87.7513 9.37435 87.1042 9.13281 86.2656 9.13281ZM107.922 15.627L109.863 6.20703H113.678L109.904 21H106.596L103.793 11.6895L100.99 21H97.6953L93.9219 6.20703H97.7363L99.6641 15.6133L102.371 6.20703H105.229L107.922 15.627ZM123.658 16.9121C123.658 16.429 123.417 16.0508 122.934 15.7773C122.46 15.4948 121.694 15.2441 120.637 15.0254C117.118 14.2871 115.359 12.7923 115.359 10.541C115.359 9.22852 115.902 8.13477 116.986 7.25977C118.08 6.37565 119.507 5.93359 121.266 5.93359C123.143 5.93359 124.643 6.37565 125.764 7.25977C126.894 8.14388 127.459 9.29232 127.459 10.7051H123.508C123.508 10.14 123.326 9.67513 122.961 9.31055C122.596 8.93685 122.027 8.75 121.252 8.75C120.587 8.75 120.072 8.90039 119.707 9.20117C119.342 9.50195 119.16 9.88477 119.16 10.3496C119.16 10.7871 119.365 11.1426 119.775 11.416C120.195 11.6803 120.896 11.9128 121.881 12.1133C122.865 12.3047 123.695 12.5234 124.369 12.7695C126.456 13.5352 127.5 14.8613 127.5 16.748C127.5 18.097 126.921 19.1908 125.764 20.0293C124.606 20.8587 123.111 21.2734 121.279 21.2734C120.04 21.2734 118.937 21.0547 117.971 20.6172C117.014 20.1706 116.262 19.5645 115.715 18.7988C115.168 18.0241 114.895 17.1901 114.895 16.2969H118.641C118.677 16.9987 118.937 17.5365 119.42 17.9102C119.903 18.2839 120.55 18.4707 121.361 18.4707C122.118 18.4707 122.688 18.3294 123.07 18.0469C123.462 17.7552 123.658 17.377 123.658 16.9121Z" fill="#E1E1E6"/>
<path d="M56.2695 19.0586C56.2695 18.4297 56.4792 17.9193 56.8984 17.5273C57.3268 17.1354 57.86 16.9395 58.498 16.9395C59.1452 16.9395 59.6784 17.1354 60.0977 17.5273C60.526 17.9193 60.7402 18.4297 60.7402 19.0586C60.7402 19.6784 60.5306 20.1842 60.1113 20.5762C59.6921 20.959 59.1543 21.1504 58.498 21.1504C57.8509 21.1504 57.3177 20.959 56.8984 20.5762C56.4792 20.1842 56.2695 19.6784 56.2695 19.0586Z" fill="#61DCFB"/>
</svg>
